<?xml version="1.0" standalone="no"?>
<!DOCTYPE svg PUBLIC "-//W3C//DTD SVG 1.1//EN" "http://www.w3.org/Graphics/SVG/1.1/DTD/svg11.dtd">
<!--Generator: Xara Designer (www.xara.com), SVG filter version: 5.0.0.2-->
<svg stroke-width="0.501" stroke-linejoin="bevel" fill-rule="evenodd" xmlns:xlink="http://www.w3.org/1999/xlink" xmlns="http://www.w3.org/2000/svg" version="1.1" overflow="visible" width="180pt" height="46.8pt" viewBox="0 0 180 46.8">
 <defs>
  <marker id="DefaultArrow2" markerUnits="strokeWidth" viewBox="0 0 1 1" markerWidth="1" markerHeight="1" overflow="visible" orient="auto">
   <!-- REF_ARROW_STRAIGHT (-2) -->
   <g transform="scale(0.0092592592)">
    <!-- 1/108 -->
    <path d="M -9 54 L -9 -54 L 117 0 z"/>
   </g>
  </marker>
  <marker id="DefaultArrow3" markerUnits="strokeWidth" viewBox="0 0 1 1" markerWidth="1" markerHeight="1" overflow="visible" orient="auto">
   <!-- REF_ARROW_ANGLED -->
   <g transform="scale(0.0092592592)">
    <path d="M -27 54 L -9 0 L -27 -54 L 135 0 z"/>
   </g>
  </marker>
  <marker id="DefaultArrow4" markerUnits="strokeWidth" viewBox="0 0 1 1" markerWidth="1" markerHeight="1" overflow="visible" orient="auto">
   <!-- REF_ARROW_ROUNDED -->
   <g transform="scale(0.0092592592)">
    <path d="M -9,0 L -9,-45 C -9,-51.708 2.808,-56.580 9,-54 L 117,-9 C 120.916,-7.369 126.000,-4.242 126,0 C 126,4.242 120.916,7.369 117,9 L 9,54 C 2.808,56.580 -9,51.708 -9,45 z"/>
   </g>
  </marker>
  <marker id="DefaultArrow5" markerUnits="strokeWidth" viewBox="0 0 1 1" markerWidth="1" markerHeight="1" overflow="visible" orient="auto">
   <!-- REF_ARROW_SPOT -->
   <g transform="scale(0.0092592592)">
    <path d="M -54, 0 C -54,29.807 -29.807,54 0,54 C 29.807,54 54,29.807 54,0 C 54,-29.807 29.807,-54 0,-54 C -29.807,-54 -54,-29.807 -54,0 z"/>
   </g>
  </marker>
  <marker id="DefaultArrow6" markerUnits="strokeWidth" viewBox="0 0 1 1" markerWidth="1" markerHeight="1" overflow="visible" orient="auto">
   <!-- REF_ARROW_DIAMOND -->
   <g transform="scale(0.0092592592)">
    <path d="M -63,0 L 0,63 L 63,0 L 0,-63 z"/>
   </g>
  </marker>
  <marker id="DefaultArrow7" markerUnits="strokeWidth" viewBox="0 0 1 1" markerWidth="1" markerHeight="1" overflow="visible" orient="auto">
   <!-- REF_ARROW_FEATHER -->
   <g transform="scale(0.0092592592)">
    <path d="M 18,-54 L 108,-54 L 63,0 L 108,54 L 18, 54 L -36,0 z"/>
   </g>
  </marker>
  <marker id="DefaultArrow8" markerUnits="strokeWidth" viewBox="0 0 1 1" markerWidth="1" markerHeight="1" overflow="visible" orient="auto">
   <!-- REF_ARROW_FEATHER2 -->
   <g transform="scale(0.0092592592)">
    <path d="M -36,0 L 18,-54 L 54,-54 L 18,-18 L 27,-18 L 63,-54 L 99,-54 L 63,-18 L 72,-18 L 108,-54 L 144,-54 L 90,0 L 144,54 L 108,54 L 72,18 L 63,18 L 99,54 L 63,54 L 27,18 L 18,18 L 54,54 L 18,54 z"/>
   </g>
  </marker>
  <marker id="DefaultArrow9" markerUnits="strokeWidth" viewBox="0 0 1 1" markerWidth="1" markerHeight="1" overflow="visible" orient="auto">
   <!-- REF_ARROW_HOLLOWDIAMOND -->
   <g transform="scale(0.0092592592)">
    <path d="M 0,45 L -45,0 L 0, -45 L 45, 0 z M 0, 63 L-63, 0 L 0, -63 L 63, 0 z"/>
   </g>
  </marker>
  <filter id="StainedFilter">
   <feBlend mode="multiply" in2="BackgroundImage" in="SourceGraphic" result="blend"/>
   <feComposite in="blend" in2="SourceAlpha" operator="in" result="comp"/>
  </filter>
  <filter id="BleachFilter">
   <feBlend mode="screen" in2="BackgroundImage" in="SourceGraphic" result="blend"/>
   <feComposite in="blend" in2="SourceAlpha" operator="in" result="comp"/>
  </filter>
  <filter id="InvertTransparencyBitmapFilter">
   <feComponentTransfer>
    <feFuncR type="gamma" amplitude="1.055" exponent=".416666666" offset="-0.055"/>
    <feFuncG type="gamma" amplitude="1.055" exponent=".416666666" offset="-0.055"/>
    <feFuncB type="gamma" amplitude="1.055" exponent=".416666666" offset="-0.055"/>
   </feComponentTransfer>
   <feComponentTransfer>
    <feFuncR type="linear" slope="-1" intercept="1"/>
    <feFuncG type="linear" slope="-1" intercept="1"/>
    <feFuncB type="linear" slope="-1" intercept="1"/>
    <feFuncA type="linear" slope="1" intercept="0"/>
   </feComponentTransfer>
   <feComponentTransfer>
    <feFuncR type="gamma" amplitude="1" exponent="2.4" offset="0"/>
    <feFuncG type="gamma" amplitude="1" exponent="2.4" offset="0"/>
    <feFuncB type="gamma" amplitude="1" exponent="2.4" offset="0"/>
   </feComponentTransfer>
  </filter>
  <linearGradient id="LinearGradient" gradientUnits="userSpaceOnUse" x1="0" y1="0" x2="-0.411" y2="-44.662" gradientTransform="translate(24.968 44.962)">
   <stop offset="0" stop-color="#ffffff"/>
   <stop offset="1" stop-color="#402100"/>
  </linearGradient>
 </defs>
 <g id="Document" fill="none" stroke="black" font-family="Times New Roman" font-size="16" transform="scale(1 -1)">
  <g id="Spread" transform="translate(0 -46.8)">
   <g id="Layer 1">
    <g id="ClipView" stroke-linecap="round">
     <path d="M 4.546,37.613 L 4.546,9.408 C 4.546,6.339 7.039,3.846 10.108,3.846 L 38.315,3.846 C 41.384,3.846 43.877,6.339 43.877,9.408 L 43.877,37.613 C 43.877,40.684 41.384,43.175 38.315,43.175 L 10.108,43.175 C 7.039,43.175 4.546,40.684 4.546,37.613 Z" fill="#7f4100" stroke="#7f4100" stroke-width="0.093" stroke-linejoin="miter" marker-start="none" marker-end="none" stroke-miterlimit="79.8403193612775"/>
     <clipPath id="ClipPath">
      <path d="M 4.592,9.408 L 4.592,37.613 C 4.592,40.658 7.064,43.128 10.108,43.128 L 38.315,43.128 C 41.358,43.128 43.83,40.658 43.83,37.613 L 43.83,9.408 C 43.83,6.364 41.358,3.892 38.315,3.892 L 10.108,3.892 C 7.064,3.892 4.592,6.364 4.592,9.408 Z"/>
     </clipPath>
     <g clip-path="url(#ClipPath)">
      <path d="M 0.429,44.241 L 0.429,2.763 L 57.717,2.763 L 57.717,44.241 L 0.429,44.241 Z" stroke-width="0.11" stroke="none" stroke-linejoin="miter" marker-start="none" marker-end="none" stroke-miterlimit="79.8403193612775" fill="url(#LinearGradient)"/>
      <path d="M 3.817,9.849 C 4.065,12.355 11.979,13.897 44.269,12.415 L 49.299,7.999 L 44.269,-5.449 L 2.484,-2.883 L 3.817,9.849 Z" fill="#004001" stroke-linejoin="miter" stroke="#7f4100" stroke-width="0.11" marker-start="none" marker-end="none" stroke-miterlimit="79.8403193612775"/>
      <path d="M 45.752,20.545 L 45.752,7.272 L 60.471,7.272 L 60.471,20.545 L 45.752,20.545 Z" fill="#cccccc" stroke-width="0.11" stroke="none" stroke-linejoin="miter" marker-start="none" marker-end="none" stroke-miterlimit="79.8403193612775"/>
      <path d="M 6.396,14.83 L 6.396,10.953 L 9.328,10.953 L 9.328,14.695 L 6.396,14.83 Z" fill="#e5e5e5" stroke="none" stroke-linejoin="round" stroke-width="0.11" marker-start="none" marker-end="none" stroke-miterlimit="79.8403193612775"/>
      <path d="M 7.379,24.487 L 7.379,10.689 L 28.668,10.689 L 28.668,24.487 L 7.379,24.487 Z" stroke-width="0.11" stroke="none" fill="#e5e5e5" stroke-linejoin="miter" marker-start="none" marker-end="none" stroke-miterlimit="79.8403193612775"/>
      <path d="M 14.121,17.377 L 14.121,10.679 L 22.746,10.679 L 22.746,17.145 L 14.121,17.377 Z" fill="#b2b2b2" stroke="none" stroke-linejoin="round" stroke-width="0.11" marker-start="none" marker-end="none" stroke-miterlimit="79.8403193612775"/>
      <path d="M 19.199,24.251 L 19.199,10.559 L 17.498,10.559 L 17.498,24.109 L 19.199,24.251 Z" fill="#cccccc" stroke="none" stroke-linejoin="round" stroke-width="0.11" marker-start="none" marker-end="none" stroke-miterlimit="79.8403193612775"/>
      <path d="M 28.012,31.321 L 28.012,25.802 L 29.588,25.802 L 29.588,31.321 L 28.012,31.321 Z" stroke-width="0.11" stroke="none" fill="#cccccc" stroke-linejoin="miter" marker-start="none" marker-end="none" stroke-miterlimit="79.8403193612775"/>
      <path d="M 22.624,31.321 L 22.624,26.065 L 28.011,26.065 L 28.011,31.321 L 22.624,31.321 Z" fill="#e5e5e5" stroke-width="0.11" stroke="none" stroke-linejoin="miter" marker-start="none" marker-end="none" stroke-miterlimit="79.8403193612775"/>
      <path d="M 22.361,31.32 L 27.968,31.2 L 29.96,31.344 L 26.181,33.787 L 22.361,31.32 Z" fill="#402100" stroke="none" stroke-linejoin="miter" stroke-width="0.11" marker-start="none" marker-end="none" stroke-miterlimit="79.8403193612775"/>
      <path d="M 23.506,17.01 L 23.506,9.77 L 26.586,10.59 L 26.586,17.83 L 23.506,17.01 Z" fill="#cccccc" stroke="none" stroke-width="0.11" stroke-linejoin="miter" marker-start="none" marker-end="none" stroke-miterlimit="79.8403193612775"/>
      <path d="M 14.608,17.766 L 14.608,10.144 L 23.544,9.77 L 23.544,17.129 L 14.608,17.766 Z" fill="#e5e5e5" stroke="none" stroke-linejoin="round" stroke-width="0.11" marker-start="none" marker-end="none" stroke-miterlimit="79.8403193612775"/>
      <path d="M 14.081,17.656 L 22.886,21.203 L 26.961,17.787 L 23.28,16.998 L 14.081,17.656 Z" fill="#402100" stroke="none" stroke-linejoin="miter" stroke-width="0.11" marker-start="none" marker-end="none" stroke-miterlimit="79.8403193612775"/>
      <path d="M 33.532,15.684 L 45.095,15.288 L 44.045,13.976 L 32.216,14.895 L 33.532,15.684 Z" fill="#000000" stroke="none" stroke-linejoin="miter" stroke-width="0.11" marker-start="none" marker-end="none" stroke-miterlimit="79.8403193612775"/>
      <path d="M 28.301,24.198 L 28.301,10.605 L 34.276,11.162 L 34.276,24.755 L 28.301,24.198 Z" stroke-width="0.11" stroke="none" fill="#cccccc" stroke-linejoin="miter" marker-start="none" marker-end="none" stroke-miterlimit="79.8403193612775"/>
      <path d="M 7.379,16.209 L 5.934,14.634 L 9.482,14.37 L 9.482,16.076 L 7.379,16.209 Z" fill="#402100" stroke="none" stroke-linejoin="round" stroke-width="0.11" marker-start="none" marker-end="none" stroke-miterlimit="79.8403193612775"/>
      <path d="M 7.177,24.362 L 10.928,27.509 L 22.755,26.984 L 29.458,26.855 L 33.794,24.356 L 46.407,24.093 L 53.504,23.7 L 60.602,20.941 L 47.46,20.414 L 33.399,20.545 L 34.319,23.044 L 33.794,23.7 L 19.206,23.964 L 17.761,22.65 L 9.725,23.031 L 10.403,24.356 L 7.177,24.362 Z" fill="#402100" stroke="none" stroke-linejoin="miter" stroke-width="0.11" marker-start="none" marker-end="none" stroke-miterlimit="79.8403193612775"/>
      <path d="M 33.425,20.542 L 33.425,11.08 L 45.778,11.08 L 45.778,20.542 L 33.425,20.542 Z" stroke-width="0.11" stroke="none" fill="#e5e5e5" stroke-linejoin="miter" marker-start="none" marker-end="none" stroke-miterlimit="79.8403193612775"/>
      <path d="M 28.041,31.169 L 30.033,31.314 L 26.256,33.757 L 28.041,31.169 Z" fill="#191919" stroke="none" stroke-linejoin="miter" stroke-width="0.11" marker-start="none" marker-end="none" stroke-miterlimit="79.8403193612775"/>
      <path d="M 25.863,34.784 C 26.153,35.002 26.565,34.943 26.783,34.653 C 27,34.362 26.942,33.95 26.651,33.733 C 26.361,33.515 25.949,33.574 25.731,33.864 C 25.514,34.154 25.573,34.566 25.863,34.784 Z" fill="#999999" stroke-width="0.09" stroke="none" stroke-linejoin="miter" marker-start="none" marker-end="none" stroke-miterlimit="79.8403193612775"/>
      <path d="M 26.224,34.85 L 26.062,35.179 L 26.224,38.332 L 26.454,35.179 L 26.224,34.85 Z" stroke="none" stroke-linejoin="miter" stroke-width="0.09" fill="#999999" marker-start="none" marker-end="none" stroke-miterlimit="79.8403193612775"/>
      <path d="M 24.845,27.294 L 24.845,29.856 L 24.865,29.856 C 24.88,30.064 25.032,30.255 25.263,30.335 C 25.585,30.443 25.946,30.299 26.067,30.012 C 26.114,29.905 26.119,29.795 26.093,29.692 L 26.093,27.294 L 24.845,27.294 Z" stroke-width="0.11" stroke="none" fill="#999999" stroke-linejoin="miter" marker-start="none" marker-end="none" stroke-miterlimit="79.8403193612775"/>
      <path d="M 12.446,21.667 C 13.188,22.087 14.132,21.824 14.552,21.083 C 14.709,20.805 14.771,20.5 14.749,20.207 L 11.665,20.437 C 11.702,20.932 11.979,21.403 12.446,21.667 Z" fill="#b2b2b2" stroke-width="0.047" stroke="none" stroke-linejoin="miter" marker-start="none" marker-end="none" stroke-miterlimit="79.8403193612775"/>
      <path d="M 17.959,16.325 C 18.703,16.746 19.645,16.484 20.068,15.74 C 20.221,15.463 20.285,15.161 20.262,14.865 L 17.18,15.095 C 17.216,15.59 17.494,16.063 17.959,16.325 Z" fill="#b2b2b2" stroke-width="0.047" stroke="none" stroke-linejoin="miter" marker-start="none" marker-end="none" stroke-miterlimit="79.8403193612775"/>
      <path d="M 34.617,19.601 L 34.617,15.905 L 36.054,15.905 L 36.054,19.601 L 34.617,19.601 Z" fill="#999999" stroke-width="0.11" stroke-linejoin="miter" stroke="none" marker-start="none" marker-end="none" stroke-miterlimit="79.8403193612775"/>
      <path d="M 37.595,19.6 L 37.595,15.905 L 39.032,15.905 L 39.032,19.6 L 37.595,19.6 Z" fill="#999999" stroke-width="0.11" stroke-linejoin="miter" stroke="none" marker-start="none" marker-end="none" stroke-miterlimit="79.8403193612775"/>
      <path d="M 34.412,15.186 L 33.642,14.673 L 43.19,14.673 L 43.96,15.186 L 34.412,15.186 Z" fill="#402100" stroke-width="0.11" stroke="none" stroke-linejoin="miter" marker-start="none" marker-end="none" stroke-miterlimit="79.8403193612775"/>
      <path d="M 24.54,16.097 C 24.802,16.568 25.224,16.566 25.484,16.095 C 25.577,15.921 25.637,15.704 25.663,15.478 L 24.361,15.011 C 24.318,15.394 24.379,15.804 24.54,16.097 Z" fill="#999999" stroke-width="0.037" stroke="none" stroke-linejoin="miter" marker-start="none" marker-end="none" stroke-miterlimit="79.8403193612775"/>
     </g>
    </g>
    <text xml:space="preserve" transform="translate(48.561 25.363) scale(1 -1)" font-size="21.764" font-family="Fira Sans Medium" fill="#000000" stroke="none" stroke-width="0.544" stroke-linecap="round" stroke-linejoin="round" stroke-miterlimit="79.8403193612775"><tspan x="0" y="0">Contile</tspan></text>
    <text xml:space="preserve" transform="translate(48.573 5.484) scale(1 -1)" font-size="14.744" font-family="Fira Sans Light" fill="#000000" stroke="none" stroke-width="0.368" stroke-linecap="round" stroke-linejoin="round" stroke-miterlimit="79.8403193612775"><tspan x="0" y="0">Mozilla Tile Server</tspan></text>
   </g>
  </g>
 </g>
</svg>
